<svg xmlns="http://www.w3.org/2000/svg" viewBox="0 0 256 257"><defs><linearGradient id="a" x1="-.828%" x2="57.636%" y1="7.652%" y2="78.411%"><stop offset="0%" stop-color="#41D1FF"/><stop offset="100%" stop-color="#BD34FE"/></linearGradient><linearGradient id="b" x1="43.376%" x2="50.316%" y1="2.242%" y2="89.03%"><stop offset="0%" stop-color="#FFEA83"/><stop offset="8.333%" stop-color="#FFDD35"/><stop offset="100%" stop-color="#FFA800"/></linearGradient></defs><path fill="url(#a)" d="M255.153 37.938 134.897 252.976c-2.483 4.44-8.862 4.466-11.382.048L.875 37.958c-2.746-4.814 1.371-10.646 6.827-9.67l120.385 21.517a6.537 6.537 0 0 0 2.322-.004l117.867-21.483c5.438-.992 9.574 4.796 6.877 9.62Z"/><path fill="url(#b)" d="m185.432.063-94.55 17.898a3.268 3.268 0 0 0-2.634 3.014l-5.474 92.456a3.268 3.268 0 0 0 3.997 3.378l26.35-6.182c2.318-.544 4.413 1.507 3.936 3.838l-7.834 38.957c-.495 2.464 1.782 4.57 4.199 3.78l16.257-5.341c2.42-.795 4.91 1.28 4.357 3.792l-12.41 57.79c-.732 3.408 3.979 5.473 5.943 2.437l1.313-2.028 76.865-153.298c1.215-2.42-.88-5.186-3.54-4.672l-27.142 5.26c-2.396.464-4.435-1.77-3.759-4.114l17.745-61.37c.677-2.346-1.37-4.583-3.769-4.113Z"/></svg>
